# xmcd CD database file
#
# Track frame offsets:
#	150
#	9738
#	26562
#	42208
#	55947
#	71670
#	88862
#	103720
#	129774
#	135020
#	155122
#	171325
#	186992
#	197014
#	211791
#	232093
#	242703
#
# Disc length: 3283 seconds
#
# Revision: 4
# Processed by: cddbd v1.5.2PL0 Copyright (c) Steve Scherf et al.
# Submitted via: CDex 1.51
#
DISCID=e90cd111
DTITLE=Dipsomaniacs - Braid Of Knees
DYEAR=2000
DGENRE=Alternative
TTITLE0=Prelude (Meet Me By The Interlude)
TTITLE1=Sum Genius
TTITLE2=The Water Choir's Drowning
TTITLE3=Ugly Side
TTITLE4=Hallelujah Feedback
TTITLE5=Queen Underfed
TTITLE6=Looking for Tape-Traders
TTITLE7=Smart Triangular Sandwich
TTITLE8=Interlude (The Twelth Knot No. 2)
TTITLE9=Dead Right
TTITLE10=The Twelth Knot
TTITLE11=More Obscure
TTITLE12=In Deep
TTITLE13=Nothing Is For Keeps
TTITLE14=Sandbox Feeling
TTITLE15=Caught Me Dreaming
TTITLE16=Postlude (The Twelth Knot No. 3)
EXTD=YEAR: 2000
EXTT0=
EXTT1=
EXTT2=
EXTT3=
EXTT4=
EXTT5=
EXTT6=
EXTT7=
EXTT8=
EXTT9=
EXTT10=
EXTT11=
EXTT12=
EXTT13=
EXTT14=
EXTT15=
EXTT16=
PLAYORDER=
